<svg width="21" height="22" viewBox="0 0 21 22" fill="none" xmlns="http://www.w3.org/2000/svg">
<g filter="url(#filter0_d_1_157)">
<path d="M3.37275 0.373746L15.7552 5.89525C16.7482 6.33775 16.7482 7.6615 15.7552 8.10475L3.37275 13.6262C2.2515 14.1265 1.0875 13.0157 1.64325 11.9747L4.00725 7.54675C4.191 7.2025 4.191 6.79675 4.00725 6.45325L1.64325 2.02525C1.08825 0.984247 2.25075 -0.127254 3.37275 0.373746Z" fill="#2965F1"/>
<path d="M3.16889 0.830299L3.16912 0.830403L15.5516 6.3519L15.5517 6.35195C16.149 6.61812 16.1499 7.38091 15.5516 7.64809C15.5516 7.64811 15.5515 7.64812 15.5515 7.64814C15.5515 7.64815 15.5515 7.64816 15.5514 7.64817L3.16912 13.1696L3.16903 13.1696C2.80834 13.3306 2.45124 13.2334 2.22438 13.0168C2.0014 12.8039 1.92679 12.5053 2.08433 12.2102L4.44833 7.78223L4.44835 7.78219C4.71055 7.29096 4.71079 6.70841 4.44813 6.2174L2.08446 1.79002C2.08444 1.78997 2.08441 1.78991 2.08438 1.78986C2.08436 1.78983 2.08435 1.7898 2.08433 1.78977C1.92704 1.4945 2.00177 1.19559 2.22452 0.982771C2.45106 0.766341 2.8078 0.669066 3.16889 0.830299Z" stroke="black"/>
</g>
<defs>
<filter id="filter0_d_1_157" x="-2.5" y="0.249771" width="23" height="21.5002" filterUnits="userSpaceOnUse" color-interpolation-filters="sRGB">
<feFlood flood-opacity="0" result="BackgroundImageFix"/>
<feColorMatrix in="SourceAlpha" type="matrix" values="0 0 0 0 0 0 0 0 0 0 0 0 0 0 0 0 0 0 127 0" result="hardAlpha"/>
<feOffset dy="4"/>
<feGaussianBlur stdDeviation="2"/>
<feComposite in2="hardAlpha" operator="out"/>
<feColorMatrix type="matrix" values="0 0 0 0 0 0 0 0 0 0 0 0 0 0 0 0 0 0 0.25 0"/>
<feBlend mode="normal" in2="BackgroundImageFix" result="effect1_dropShadow_1_157"/>
<feBlend mode="normal" in="SourceGraphic" in2="effect1_dropShadow_1_157" result="shape"/>
</filter>
</defs>
</svg>
